<?xml version="1.0" standalone="no"?>
<!DOCTYPE svg PUBLIC "-//W3C//DTD SVG 20010904//EN"
 "http://www.w3.org/TR/2001/REC-SVG-20010904/DTD/svg10.dtd">
<svg version="1.0" xmlns="http://www.w3.org/2000/svg"
 width="367.000000pt" height="367.000000pt" viewBox="0 0 367.000000 367.000000"
 preserveAspectRatio="xMidYMid meet">
<metadata>
Created by potrace 1.11, written by Peter Selinger 2001-2013
</metadata>
<g transform="translate(0.000000,367.000000) scale(0.100000,-0.100000)"
fill="#000000" stroke="none">
<path d="M1005 3247 c-121 -37 -179 -115 -169 -228 3 -24 11 -53 19 -66 9 -13
13 -23 10 -23 -2 0 26 -31 63 -69 414 -424 645 -663 672 -694 61 -71 147 -99
230 -77 46 12 92 55 319 296 46 49 159 168 251 264 252 264 260 273 277 305
10 18 16 54 17 91 0 96 -52 170 -142 201 -90 31 -157 4 -267 -111 -101 -105
-375 -391 -454 -475 l-60 -64 -113 115 c-62 63 -194 198 -293 299 -99 101
-193 194 -210 205 -40 28 -112 43 -150 31z"/>
<path d="M2995 2717 c-49 -16 -75 -38 -312 -271 -290 -284 -405 -396 -482
-470 -77 -73 -102 -121 -102 -192 0 -62 29 -123 79 -164 27 -23 230 -213 376
-354 264 -253 356 -339 386 -361 43 -31 102 -48 141 -40 16 4 32 7 36 7 22 0
86 46 107 77 34 49 43 79 40 124 -7 95 -8 96 -290 363 -345 326 -379 363 -345
376 26 9 595 578 613 612 38 75 19 186 -44 242 -56 51 -139 72 -203 51z"/>
<path d="M483 2671 c-93 -23 -153 -101 -153 -198 0 -80 25 -115 196 -278 82
-77 218 -208 302 -291 l155 -150 -144 -141 c-79 -77 -219 -214 -311 -304 -176
-173 -198 -204 -198 -282 0 -56 20 -103 61 -145 42 -43 89 -62 151 -62 69 0
108 24 225 137 393 381 641 622 665 648 43 44 61 84 64 140 3 68 -23 122 -86
181 -138 127 -188 174 -251 235 -59 57 -162 156 -437 417 -37 35 -79 70 -93
77 -34 18 -105 26 -146 16z"/>
<path d="M1793 1460 c-13 -5 -23 -7 -23 -4 0 6 -62 -36 -70 -47 -9 -13 -223
-241 -341 -363 -310 -322 -390 -410 -415 -454 -31 -55 -31 -109 1 -175 45 -94
142 -136 250 -106 42 12 96 63 390 374 169 179 253 265 259 265 5 0 101 -97
463 -466 144 -147 195 -183 258 -184 136 -1 244 125 213 249 -13 54 -35 88
-103 157 -27 28 -187 192 -355 364 -168 172 -316 324 -329 337 -49 50 -143 75
-198 53z"/>
</g>
</svg>
