<svg width="100" height="61" viewBox="0 0 100 61" fill="none" xmlns="http://www.w3.org/2000/svg">
<path d="M14.5019 11.53C14.7072 11.9313 14.8379 12.3187 14.8939 12.692C14.5019 12.86 14.1006 12.9813 13.6899 13.056C13.2792 13.1307 12.8359 13.168 12.3599 13.168C11.6319 13.168 10.9739 13.0513 10.3859 12.818C9.80724 12.5753 9.31724 12.2347 8.91591 11.796C8.51457 11.348 8.20657 10.8067 7.99191 10.172C7.77724 9.53733 7.66991 8.82333 7.66991 8.03C7.66991 7.22733 7.77724 6.504 7.99191 5.86C8.20657 5.20667 8.51457 4.65133 8.91591 4.194C9.31724 3.73667 9.80724 3.38667 10.3859 3.144C10.9646 2.892 11.6132 2.766 12.3319 2.766C12.8639 2.766 13.3212 2.80333 13.7039 2.878C14.0866 2.95267 14.4272 3.04133 14.7259 3.144C14.7072 3.35867 14.6652 3.55933 14.5999 3.746C14.5439 3.92333 14.4739 4.11467 14.3899 4.32C14.2499 4.27333 14.1146 4.23133 13.9839 4.194C13.8532 4.15667 13.7132 4.124 13.5639 4.096C13.4146 4.068 13.2466 4.04933 13.0599 4.04C12.8826 4.02133 12.6772 4.012 12.4439 4.012C11.4266 4.012 10.6332 4.35733 10.0639 5.048C9.50391 5.73867 9.22391 6.73267 9.22391 8.03C9.22391 8.69267 9.30324 9.26667 9.46191 9.752C9.62057 10.2373 9.84457 10.6387 10.1339 10.956C10.4232 11.2733 10.7686 11.5113 11.1699 11.67C11.5806 11.8287 12.0379 11.908 12.5419 11.908C12.9339 11.908 13.2886 11.8753 13.6059 11.81C13.9232 11.7447 14.2219 11.6513 14.5019 11.53ZM16.7302 2.738C16.8329 2.71933 16.9449 2.70533 17.0662 2.696C17.1969 2.68667 17.3135 2.682 17.4162 2.682C17.5189 2.682 17.6309 2.68667 17.7522 2.696C17.8829 2.70533 17.9995 2.71933 18.1022 2.738V10.83C18.1022 11.0913 18.1255 11.2967 18.1722 11.446C18.2189 11.5953 18.2795 11.712 18.3542 11.796C18.4382 11.8707 18.5315 11.922 18.6342 11.95C18.7462 11.9687 18.8629 11.978 18.9842 11.978C19.0682 11.978 19.1615 11.9733 19.2642 11.964C19.3762 11.9547 19.4695 11.9407 19.5442 11.922C19.6282 12.2487 19.6702 12.6033 19.6702 12.986C19.5395 13.0327 19.3809 13.0607 19.1942 13.07C19.0075 13.0887 18.8349 13.098 18.6762 13.098C18.4055 13.098 18.1535 13.0653 17.9202 13C17.6869 12.9347 17.4815 12.8273 17.3042 12.678C17.1269 12.5287 16.9869 12.328 16.8842 12.076C16.7815 11.824 16.7302 11.5113 16.7302 11.138V2.738ZM21.4881 6.91H20.5781C20.5595 6.83533 20.5455 6.75133 20.5361 6.658C20.5268 6.55533 20.5221 6.45733 20.5221 6.364C20.5221 6.27067 20.5268 6.17733 20.5361 6.084C20.5455 5.98133 20.5595 5.89267 20.5781 5.818H22.8461V13C22.7435 13.0187 22.6268 13.0327 22.4961 13.042C22.3748 13.0513 22.2628 13.056 22.1601 13.056C22.0668 13.056 21.9548 13.0513 21.8241 13.042C21.7028 13.0327 21.5908 13.0187 21.4881 13V6.91ZM21.1801 4.236C21.1615 4.124 21.1475 4.00267 21.1381 3.872C21.1381 3.74133 21.1381 3.62467 21.1381 3.522C21.1381 3.41933 21.1381 3.30267 21.1381 3.172C21.1475 3.04133 21.1615 2.92467 21.1801 2.822C21.3015 2.80333 21.4321 2.78933 21.5721 2.78C21.7121 2.77067 21.8335 2.766 21.9361 2.766C22.0388 2.766 22.1601 2.77067 22.3001 2.78C22.4401 2.78933 22.5661 2.80333 22.6781 2.822C22.6968 2.92467 22.7061 3.04133 22.7061 3.172C22.7155 3.30267 22.7201 3.41933 22.7201 3.522C22.7201 3.62467 22.7155 3.74133 22.7061 3.872C22.7061 4.00267 22.6968 4.124 22.6781 4.236C22.5661 4.25467 22.4401 4.26867 22.3001 4.278C22.1695 4.28733 22.0528 4.292 21.9501 4.292C21.8381 4.292 21.7121 4.28733 21.5721 4.278C21.4321 4.26867 21.3015 4.25467 21.1801 4.236ZM30.0293 11.754C30.104 11.8847 30.1693 12.048 30.2253 12.244C30.2813 12.44 30.314 12.6407 30.3233 12.846C29.7727 13.0607 29.1427 13.168 28.4333 13.168C27.2387 13.168 26.338 12.832 25.7313 12.16C25.1247 11.4787 24.8213 10.564 24.8213 9.416C24.8213 8.884 24.896 8.38933 25.0453 7.932C25.1947 7.47467 25.414 7.078 25.7033 6.742C26.002 6.406 26.3707 6.14 26.8093 5.944C27.248 5.748 27.7567 5.65 28.3353 5.65C28.7273 5.65 29.0727 5.67333 29.3713 5.72C29.67 5.76667 29.9547 5.84133 30.2253 5.944C30.2253 6.10267 30.202 6.28933 30.1553 6.504C30.118 6.70933 30.062 6.89133 29.9873 7.05C29.53 6.89133 29.0073 6.812 28.4193 6.812C27.7007 6.812 27.164 7.05 26.8093 7.526C26.4547 8.002 26.2773 8.632 26.2773 9.416C26.2773 10.312 26.478 10.97 26.8793 11.39C27.2807 11.8007 27.8313 12.006 28.5313 12.006C28.8113 12.006 29.068 11.9873 29.3013 11.95C29.544 11.9127 29.7867 11.8473 30.0293 11.754ZM32.0109 2.738C32.1135 2.71933 32.2255 2.70533 32.3469 2.696C32.4775 2.68667 32.5942 2.682 32.6969 2.682C32.7995 2.682 32.9162 2.68667 33.0469 2.696C33.1775 2.70533 33.2942 2.71933 33.3969 2.738V13C33.2942 13.0187 33.1775 13.0327 33.0469 13.042C32.9162 13.0513 32.7995 13.056 32.6969 13.056C32.5942 13.056 32.4775 13.0513 32.3469 13.042C32.2255 13.0327 32.1135 13.0187 32.0109 13V2.738ZM33.7749 9.276L36.0569 5.818C36.1782 5.79933 36.2995 5.78533 36.4209 5.776C36.5422 5.76667 36.6682 5.762 36.7989 5.762C36.9389 5.762 37.0695 5.76667 37.1909 5.776C37.3215 5.78533 37.4522 5.79933 37.5829 5.818L35.3009 9.178L37.9749 13C37.8442 13.0187 37.7182 13.0327 37.5969 13.042C37.4755 13.0513 37.3495 13.056 37.2189 13.056C37.0882 13.056 36.9575 13.0513 36.8269 13.042C36.6962 13.0327 36.5655 13.0187 36.4349 13L33.7749 9.276ZM43.1265 6.924H42.0345L41.9785 6.728L44.3865 4.04H44.4985V5.818H46.3185C46.3559 5.97667 46.3745 6.154 46.3745 6.35C46.3745 6.45267 46.3699 6.55067 46.3605 6.644C46.3512 6.73733 46.3372 6.83067 46.3185 6.924H44.4985V10.2C44.4985 10.592 44.5125 10.9047 44.5405 11.138C44.5779 11.3713 44.6339 11.5533 44.7085 11.684C44.7925 11.8053 44.8999 11.8893 45.0305 11.936C45.1705 11.9733 45.3432 11.992 45.5485 11.992C45.7072 11.992 45.8565 11.9827 45.9965 11.964C46.1365 11.936 46.2625 11.908 46.3745 11.88C46.4399 12.0667 46.4772 12.258 46.4865 12.454C46.5052 12.65 46.5145 12.8227 46.5145 12.972C46.3279 13.0187 46.1319 13.0513 45.9265 13.07C45.7212 13.098 45.5019 13.112 45.2685 13.112C44.5965 13.112 44.0692 12.9487 43.6865 12.622C43.3132 12.2953 43.1265 11.754 43.1265 10.998V6.924ZM50.9301 13.168C50.3701 13.168 49.8801 13.0747 49.4601 12.888C49.0401 12.692 48.6901 12.426 48.4101 12.09C48.1301 11.754 47.9201 11.3573 47.7801 10.9C47.6495 10.4427 47.5841 9.948 47.5841 9.416C47.5841 8.884 47.6495 8.38933 47.7801 7.932C47.9201 7.47467 48.1301 7.078 48.4101 6.742C48.6901 6.406 49.0401 6.14 49.4601 5.944C49.8801 5.748 50.3701 5.65 50.9301 5.65C51.4901 5.65 51.9801 5.748 52.4001 5.944C52.8201 6.14 53.1701 6.406 53.4501 6.742C53.7301 7.078 53.9355 7.47467 54.0661 7.932C54.2061 8.38933 54.2761 8.884 54.2761 9.416C54.2761 9.948 54.2061 10.4427 54.0661 10.9C53.9355 11.3573 53.7301 11.754 53.4501 12.09C53.1701 12.426 52.8201 12.692 52.4001 12.888C51.9801 13.0747 51.4901 13.168 50.9301 13.168ZM50.9301 12.062C51.5741 12.062 52.0501 11.8287 52.3581 11.362C52.6661 10.8953 52.8201 10.2467 52.8201 9.416C52.8201 8.58533 52.6661 7.94133 52.3581 7.484C52.0501 7.01733 51.5741 6.784 50.9301 6.784C50.2861 6.784 49.8101 7.01733 49.5021 7.484C49.2035 7.94133 49.0541 8.58533 49.0541 9.416C49.0541 10.2467 49.2035 10.8953 49.5021 11.362C49.8101 11.8287 50.2861 12.062 50.9301 12.062ZM59.6445 2.738C59.7471 2.71933 59.8591 2.70533 59.9805 2.696C60.1111 2.68667 60.2278 2.682 60.3305 2.682C60.4331 2.682 60.5498 2.68667 60.6805 2.696C60.8111 2.70533 60.9278 2.71933 61.0305 2.738V13C60.9278 13.0187 60.8111 13.0327 60.6805 13.042C60.5498 13.0513 60.4331 13.056 60.3305 13.056C60.2278 13.056 60.1111 13.0513 59.9805 13.042C59.8591 13.0327 59.7471 13.0187 59.6445 13V2.738ZM61.4085 9.276L63.6905 5.818C63.8118 5.79933 63.9331 5.78533 64.0545 5.776C64.1758 5.76667 64.3018 5.762 64.4325 5.762C64.5725 5.762 64.7031 5.76667 64.8245 5.776C64.9551 5.78533 65.0858 5.79933 65.2165 5.818L62.9345 9.178L65.6085 13C65.4778 13.0187 65.3518 13.0327 65.2305 13.042C65.1091 13.0513 64.9831 13.056 64.8525 13.056C64.7218 13.056 64.5911 13.0513 64.4605 13.042C64.3298 13.0327 64.1991 13.0187 64.0685 13L61.4085 9.276ZM67.0319 5.818C67.1345 5.79933 67.2325 5.78533 67.3259 5.776C67.4285 5.76667 67.5312 5.762 67.6339 5.762C67.7365 5.762 67.8299 5.76667 67.9139 5.776C68.0072 5.78533 68.1052 5.79933 68.2079 5.818C68.2359 5.958 68.2639 6.14933 68.2919 6.392C68.3199 6.62533 68.3339 6.82133 68.3339 6.98C68.4272 6.82133 68.5439 6.66267 68.6839 6.504C68.8332 6.34533 69.0012 6.20533 69.1879 6.084C69.3745 5.95333 69.5892 5.85067 69.8319 5.776C70.0745 5.692 70.3405 5.65 70.6299 5.65C71.4512 5.65 72.0579 5.888 72.4499 6.364C72.8419 6.83067 73.0379 7.526 73.0379 8.45V13C72.9352 13.0187 72.8185 13.0327 72.6879 13.042C72.5572 13.0513 72.4405 13.056 72.3379 13.056C72.2352 13.056 72.1185 13.0513 71.9879 13.042C71.8665 13.0327 71.7545 13.0187 71.6519 13V8.828C71.6519 8.16533 71.5492 7.68 71.3439 7.372C71.1385 7.05467 70.8119 6.896 70.3639 6.896C70.1025 6.896 69.8552 6.94267 69.6219 7.036C69.3885 7.12933 69.1832 7.274 69.0059 7.47C68.8285 7.666 68.6839 7.92267 68.5719 8.24C68.4692 8.548 68.4179 8.92133 68.4179 9.36V13C68.3152 13.0187 68.1985 13.0327 68.0679 13.042C67.9465 13.0513 67.8345 13.056 67.7319 13.056C67.6292 13.056 67.5125 13.0513 67.3819 13.042C67.2512 13.0327 67.1345 13.0187 67.0319 13V5.818ZM78.1776 13.168C77.6176 13.168 77.1276 13.0747 76.7076 12.888C76.2876 12.692 75.9376 12.426 75.6576 12.09C75.3776 11.754 75.1676 11.3573 75.0276 10.9C74.897 10.4427 74.8316 9.948 74.8316 9.416C74.8316 8.884 74.897 8.38933 75.0276 7.932C75.1676 7.47467 75.3776 7.078 75.6576 6.742C75.9376 6.406 76.2876 6.14 76.7076 5.944C77.1276 5.748 77.6176 5.65 78.1776 5.65C78.7376 5.65 79.2276 5.748 79.6476 5.944C80.0676 6.14 80.4176 6.406 80.6976 6.742C80.9776 7.078 81.183 7.47467 81.3136 7.932C81.4536 8.38933 81.5236 8.884 81.5236 9.416C81.5236 9.948 81.4536 10.4427 81.3136 10.9C81.183 11.3573 80.9776 11.754 80.6976 12.09C80.4176 12.426 80.0676 12.692 79.6476 12.888C79.2276 13.0747 78.7376 13.168 78.1776 13.168ZM78.1776 12.062C78.8216 12.062 79.2976 11.8287 79.6056 11.362C79.9136 10.8953 80.0676 10.2467 80.0676 9.416C80.0676 8.58533 79.9136 7.94133 79.6056 7.484C79.2976 7.01733 78.8216 6.784 78.1776 6.784C77.5336 6.784 77.0576 7.01733 76.7496 7.484C76.451 7.94133 76.3016 8.58533 76.3016 9.416C76.3016 10.2467 76.451 10.8953 76.7496 11.362C77.0576 11.8287 77.5336 12.062 78.1776 12.062ZM82.4686 5.818C82.5993 5.79933 82.73 5.78533 82.8606 5.776C82.9913 5.76667 83.108 5.762 83.2106 5.762C83.3413 5.762 83.472 5.76667 83.6026 5.776C83.7426 5.78533 83.864 5.79933 83.9666 5.818L85.3666 11.684L86.9486 5.818C87.0513 5.79933 87.1633 5.78533 87.2846 5.776C87.406 5.76667 87.532 5.762 87.6626 5.762C87.812 5.77133 87.938 5.78067 88.0406 5.79C88.1526 5.79 88.26 5.79933 88.3626 5.818L89.9306 11.586L91.3306 5.818C91.4333 5.79933 91.536 5.78533 91.6386 5.776C91.7413 5.76667 91.8533 5.762 91.9746 5.762C92.0773 5.762 92.1893 5.76667 92.3106 5.776C92.4413 5.78533 92.572 5.79933 92.7026 5.818L90.5606 13C90.4393 13.0187 90.3133 13.0327 90.1826 13.042C90.0613 13.0513 89.9493 13.056 89.8466 13.056C89.744 13.056 89.632 13.0513 89.5106 13.042C89.3893 13.0327 89.268 13.0187 89.1466 13L87.6066 7.568L85.9966 13C85.866 13.0187 85.7353 13.0327 85.6046 13.042C85.4833 13.0513 85.3713 13.056 85.2686 13.056C85.166 13.056 85.0493 13.0513 84.9186 13.042C84.7973 13.0327 84.6853 13.0187 84.5826 13L82.4686 5.818ZM34.5038 22.818C34.6064 22.7993 34.7044 22.7853 34.7978 22.776C34.9004 22.7667 35.0031 22.762 35.1058 22.762C35.2084 22.762 35.3018 22.7667 35.3858 22.776C35.4791 22.7853 35.5771 22.7993 35.6798 22.818C35.7078 22.958 35.7358 23.1447 35.7638 23.378C35.7918 23.602 35.8058 23.7933 35.8058 23.952C35.8898 23.784 35.9924 23.6253 36.1138 23.476C36.2444 23.3173 36.3938 23.1773 36.5618 23.056C36.7391 22.9347 36.9398 22.8367 37.1638 22.762C37.3878 22.6873 37.6351 22.65 37.9058 22.65C38.4658 22.65 38.8951 22.7667 39.1938 23C39.5018 23.224 39.7351 23.5413 39.8938 23.952C39.9871 23.7933 40.0991 23.6347 40.2298 23.476C40.3698 23.3173 40.5238 23.1773 40.6918 23.056C40.8598 22.9347 41.0511 22.8367 41.2658 22.762C41.4804 22.6873 41.7231 22.65 41.9938 22.65C42.8244 22.65 43.4264 22.8833 43.7998 23.35C44.1824 23.8167 44.3738 24.5073 44.3738 25.422V30C44.2711 30.0187 44.1544 30.0327 44.0238 30.042C43.8931 30.0513 43.7764 30.056 43.6738 30.056C43.5711 30.056 43.4544 30.0513 43.3238 30.042C43.2024 30.0327 43.0904 30.0187 42.9878 30V25.828C42.9878 25.184 42.8898 24.7033 42.6938 24.386C42.4978 24.0593 42.1758 23.896 41.7278 23.896C41.2518 23.896 40.8644 24.0687 40.5658 24.414C40.2764 24.7593 40.1318 25.268 40.1318 25.94V30C40.0291 30.0187 39.9124 30.0327 39.7818 30.042C39.6604 30.0513 39.5484 30.056 39.4458 30.056C39.3431 30.056 39.2264 30.0513 39.0958 30.042C38.9744 30.0327 38.8624 30.0187 38.7598 30V25.73C38.7598 25.1047 38.6664 24.638 38.4798 24.33C38.2931 24.0127 37.9944 23.854 37.5838 23.854C37.3504 23.854 37.1311 23.9053 36.9258 24.008C36.7204 24.1107 36.5384 24.2647 36.3798 24.47C36.2304 24.6753 36.1091 24.9367 36.0158 25.254C35.9318 25.562 35.8898 25.9213 35.8898 26.332V30C35.7871 30.0187 35.6704 30.0327 35.5398 30.042C35.4184 30.0513 35.3064 30.056 35.2038 30.056C35.1011 30.056 34.9844 30.0513 34.8538 30.042C34.7231 30.0327 34.6064 30.0187 34.5038 30V22.818ZM49.505 30.168C48.945 30.168 48.455 30.0747 48.035 29.888C47.615 29.692 47.265 29.426 46.985 29.09C46.705 28.754 46.495 28.3573 46.355 27.9C46.2243 27.4427 46.159 26.948 46.159 26.416C46.159 25.884 46.2243 25.3893 46.355 24.932C46.495 24.4747 46.705 24.078 46.985 23.742C47.265 23.406 47.615 23.14 48.035 22.944C48.455 22.748 48.945 22.65 49.505 22.65C50.065 22.65 50.555 22.748 50.975 22.944C51.395 23.14 51.745 23.406 52.025 23.742C52.305 24.078 52.5103 24.4747 52.641 24.932C52.781 25.3893 52.851 25.884 52.851 26.416C52.851 26.948 52.781 27.4427 52.641 27.9C52.5103 28.3573 52.305 28.754 52.025 29.09C51.745 29.426 51.395 29.692 50.975 29.888C50.555 30.0747 50.065 30.168 49.505 30.168ZM49.505 29.062C50.149 29.062 50.625 28.8287 50.933 28.362C51.241 27.8953 51.395 27.2467 51.395 26.416C51.395 25.5853 51.241 24.9413 50.933 24.484C50.625 24.0173 50.149 23.784 49.505 23.784C48.861 23.784 48.385 24.0173 48.077 24.484C47.7783 24.9413 47.629 25.5853 47.629 26.416C47.629 27.2467 47.7783 27.8953 48.077 28.362C48.385 28.8287 48.861 29.062 49.505 29.062ZM54.813 22.818C54.9157 22.7993 55.0137 22.7853 55.107 22.776C55.2004 22.7667 55.2984 22.762 55.401 22.762C55.5037 22.762 55.6064 22.7667 55.709 22.776C55.8117 22.7853 55.905 22.7993 55.989 22.818C56.017 22.958 56.045 23.1447 56.073 23.378C56.101 23.602 56.115 23.7933 56.115 23.952C56.311 23.6347 56.5677 23.3593 56.885 23.126C57.2117 22.8927 57.627 22.776 58.131 22.776C58.2057 22.776 58.2804 22.7807 58.355 22.79C58.439 22.79 58.509 22.7947 58.565 22.804C58.5837 22.888 58.5977 22.9767 58.607 23.07C58.6164 23.1633 58.621 23.2613 58.621 23.364C58.621 23.476 58.6117 23.5927 58.593 23.714C58.5837 23.8353 58.5697 23.952 58.551 24.064C58.4764 24.0453 58.397 24.036 58.313 24.036C58.2384 24.036 58.1777 24.036 58.131 24.036C57.879 24.036 57.6364 24.0733 57.403 24.148C57.179 24.2133 56.9737 24.3347 56.787 24.512C56.6097 24.6893 56.465 24.932 56.353 25.24C56.2504 25.548 56.199 25.9447 56.199 26.43V30C56.0964 30.0187 55.9797 30.0327 55.849 30.042C55.7277 30.0513 55.6157 30.056 55.513 30.056C55.4104 30.056 55.2937 30.0513 55.163 30.042C55.0417 30.0327 54.925 30.0187 54.813 30V22.818ZM60.993 26.752C61.0116 27.536 61.2123 28.11 61.595 28.474C61.987 28.838 62.561 29.02 63.317 29.02C63.9796 29.02 64.6096 28.9033 65.207 28.67C65.2816 28.81 65.3423 28.9827 65.389 29.188C65.4356 29.384 65.4636 29.58 65.473 29.776C65.165 29.9067 64.8243 30.0047 64.451 30.07C64.087 30.1353 63.681 30.168 63.233 30.168C62.5796 30.168 62.0196 30.0793 61.553 29.902C61.0863 29.7153 60.699 29.4587 60.391 29.132C60.0923 28.796 59.873 28.404 59.733 27.956C59.593 27.4987 59.523 26.9993 59.523 26.458C59.523 25.926 59.5883 25.4313 59.719 24.974C59.859 24.5073 60.069 24.106 60.349 23.77C60.629 23.4247 60.979 23.154 61.399 22.958C61.8283 22.7527 62.3323 22.65 62.911 22.65C63.4056 22.65 63.8396 22.734 64.213 22.902C64.5863 23.07 64.899 23.3033 65.151 23.602C65.403 23.8913 65.5943 24.2413 65.725 24.652C65.8556 25.0533 65.921 25.492 65.921 25.968C65.921 26.0987 65.9163 26.2387 65.907 26.388C65.8976 26.528 65.8883 26.6493 65.879 26.752H60.993ZM64.549 25.716C64.549 25.4547 64.5116 25.2073 64.437 24.974C64.3716 24.7313 64.269 24.5213 64.129 24.344C63.9983 24.1667 63.8256 24.0267 63.611 23.924C63.4056 23.812 63.1583 23.756 62.869 23.756C62.2996 23.756 61.861 23.9287 61.553 24.274C61.2543 24.6193 61.0723 25.1 61.007 25.716H64.549Z" fill="#152660"/>
<g clip-path="url(#clip0)">
<path d="M37.058 61.0346C36.6924 61.0346 36.3338 60.8918 36.0637 60.6221L32.6198 57.1854C32.2201 56.7866 32 56.2561 32 55.6915C32 55.127 32.2201 54.5963 32.6198 54.1975L36.0637 50.7609C36.4684 50.3569 37.0714 50.2375 37.5999 50.4567C38.1276 50.6756 38.4686 51.1859 38.4686 51.7567V54.9883C44.0516 54.9883 48.5938 50.4461 48.5938 44.8631V43.7383C48.5938 43.3499 48.9085 43.0352 49.2969 43.0352C49.6852 43.0352 50 43.3499 50 43.7383V44.8631C50 47.9433 48.8006 50.8392 46.6225 53.0172C44.4445 55.1951 41.5488 56.3947 38.4686 56.3947C37.6931 56.3947 37.0622 55.7638 37.0622 54.9884V51.7567C37.0622 51.7565 37.0622 51.7564 37.0622 51.7562C37.0611 51.7557 37.0598 51.7551 37.0585 51.7547C37.0581 51.7553 37.0576 51.7557 37.057 51.7562L33.6131 55.193C33.4797 55.3261 33.4062 55.5031 33.4062 55.6915C33.4062 55.88 33.4797 56.057 33.6131 56.19L37.057 59.6267L37.0585 59.6282C37.0598 59.6278 37.0611 59.6274 37.0622 59.6268C37.0622 59.6267 37.0622 59.6266 37.0622 59.6263V58.8556C37.0622 58.4672 37.3771 58.1525 37.7655 58.1525C38.1537 58.1525 38.4686 58.4672 38.4686 58.8556V59.6263C38.4686 60.197 38.1276 60.7074 37.5999 60.9263C37.4242 60.9992 37.2402 61.0346 37.058 61.0346Z" fill="#152660"/>
</g>
<defs>
<clipPath id="clip0">
<rect x="32" y="43" width="18" height="18" fill="white"/>
</clipPath>
</defs>
</svg>
