<svg width="40" height="40" viewBox="0 0 40 40" fill="none" xmlns="http://www.w3.org/2000/svg">
<g clip-path="url(#clip0)">
<path d="M2.38498e-07 20C1.06782e-07 31.0455 8.95453 40 20 40C31.0455 40 40 31.0455 40 20C40 8.95453 31.0455 3.70214e-07 20 2.38498e-07C8.95453 1.06782e-07 3.70214e-07 8.95453 2.38498e-07 20ZM36.6666 20C36.6666 29.2045 29.2045 36.6666 20 36.6666C10.7955 36.6666 3.33336 29.2045 3.33336 20C3.33336 10.7955 10.7955 3.33336 20 3.33336C29.2045 3.33336 36.6666 10.7955 36.6666 20Z" fill="#152660"/>
<path d="M10.4881 22.1548C9.83729 22.8057 9.83729 23.861 10.4881 24.5119C11.139 25.1627 12.1943 25.1627 12.8452 24.5119L20 17.357L27.1549 24.5119C27.8057 25.1627 28.861 25.1627 29.5119 24.5119C30.1628 23.861 30.1628 22.8057 29.5119 22.1548L21.1785 13.8215C20.5277 13.1706 19.4724 13.1706 18.8215 13.8215L10.4881 22.1548Z" fill="#152660"/>
</g>
<defs>
<clipPath id="clip0">
<rect y="40" width="40" height="40" transform="rotate(-90 0 40)" fill="white"/>
</clipPath>
</defs>
</svg>
