<svg width="220" height="45" viewBox="0 0 220 45" fill="none" xmlns="http://www.w3.org/2000/svg">
<g clip-path="url(#clip0)">
<path d="M34.5786 5.31289L23.8644 16.5476C22.7099 17.7644 20.7537 17.8291 19.5347 16.644C18.3156 15.4919 18.251 13.5391 19.4383 12.3234L25.4373 6.05001L30.1502 1.08867C31.3047 -0.128137 33.262 -0.192776 34.4811 0.992275C35.6673 2.17619 35.7319 4.09722 34.5775 5.31289H34.5786Z" fill="#FC2F30"/>
<mask id="mask0" mask-type="alpha" maskUnits="userSpaceOnUse" x="18" y="0" width="18" height="18">
<path d="M34.5785 5.31289L23.8654 16.5476C22.7099 17.7644 20.7537 17.8291 19.5346 16.644C18.3155 15.4919 18.252 13.5391 19.4382 12.3234L25.4372 6.05001L30.1524 1.08867C31.3069 -0.128137 33.2631 -0.192776 34.4821 0.992275C35.6694 2.17619 35.733 4.09722 34.5785 5.31289Z" fill="white"/>
</mask>
<g mask="url(#mask0)">
<path d="M34.5785 5.31289L23.8654 16.5476C22.7099 17.7644 20.7537 17.8291 19.5346 16.644C18.3155 15.4919 18.252 13.5391 19.4382 12.3234L25.4372 6.05001L30.1524 1.08867C31.3069 -0.128137 33.2631 -0.192776 34.4821 0.992275C35.6694 2.17619 35.733 4.09722 34.5785 5.31289Z" fill="#F22539"/>
<path opacity="0.25" d="M18.2838 -0.99223L24.8588 13.0583C25.5653 14.596 24.9235 16.4195 23.3846 17.1238C21.8446 17.828 20.0165 17.1884 19.3101 15.6518L12.7021 1.60127C11.9968 0.0624092 12.6386 -1.7611 14.1786 -2.46532C14.9194 -2.80715 15.7647 -2.8443 16.5326 -2.56876C17.3005 -2.29322 17.9294 -1.72704 18.2838 -0.99223Z" fill="#8E0D23"/>
</g>
<path d="M12.9584 1.15215L23.8326 12.2587C24.114 12.5456 24.3357 12.8854 24.4849 13.2586C24.6342 13.6317 24.7079 14.0307 24.7019 14.4325C24.6959 14.8344 24.6102 15.231 24.4499 15.5995C24.2896 15.968 24.0578 16.301 23.7679 16.5794C23.48 16.8604 23.1393 17.0819 22.7656 17.2309C22.3918 17.3799 21.9922 17.4535 21.5899 17.4476C21.1875 17.4417 20.7903 17.3564 20.4211 17.1965C20.0518 17.0366 19.7178 16.8053 19.4382 16.5159L8.59586 5.44102C8.31437 5.15422 8.09254 4.81445 7.94323 4.44136C7.79391 4.06827 7.72007 3.66927 7.72598 3.26746C7.73188 2.86564 7.81742 2.46898 7.97763 2.10044C8.13785 1.7319 8.36956 1.3988 8.65937 1.1204C8.94214 0.837536 9.27834 0.613731 9.64841 0.462007C10.0185 0.310283 10.415 0.233669 10.815 0.236624C11.2149 0.239579 11.6103 0.322043 11.9781 0.479218C12.3459 0.636393 12.6787 0.865141 12.9573 1.15215H12.9584Z" fill="#FF1723"/>
<path d="M5.19607 9.21848L16.4546 19.9089C17.6737 21.061 17.7383 23.0138 16.551 24.2295C15.3966 25.4463 13.4404 25.5109 12.2213 24.3259L5.93432 18.3405L0.962772 13.6343C-0.2563 12.4845 -0.320939 10.5317 0.86638 9.31487C2.02081 8.0992 3.977 8.06745 5.19607 9.21961V9.21848Z" fill="#FC2F30"/>
<mask id="mask1" mask-type="alpha" maskUnits="userSpaceOnUse" x="0" y="8" width="18" height="18">
<path d="M5.19607 9.21846L16.4546 19.9089C17.6737 21.0622 17.7383 23.0138 16.551 24.2295C15.3966 25.4463 13.4404 25.5109 12.2213 24.327L5.93432 18.3405L0.962772 13.6355C-0.2563 12.4844 -0.320939 10.5317 0.86638 9.31485C2.02081 8.09805 3.977 8.06743 5.19607 9.21846Z" fill="white"/>
</mask>
<g mask="url(#mask1)">
<path d="M5.19607 9.21846L16.4546 19.9089C17.6737 21.0622 17.7383 23.0138 16.551 24.2295C15.3966 25.4463 13.4404 25.5109 12.2213 24.327L5.93432 18.3405L0.962772 13.6355C-0.2563 12.4844 -0.320939 10.5317 0.86638 9.31485C2.02081 8.09805 3.977 8.06743 5.19607 9.21846Z" fill="#05C19D"/>
<path opacity="0.15" d="M-1.12269 25.4792L12.9584 18.9166C14.4984 18.2135 16.3265 18.8531 17.033 20.3897C17.7383 21.9263 17.0965 23.7498 15.5565 24.454L1.47535 31.0166C-0.0646467 31.7197 -1.89269 31.0801 -2.59805 29.5435C-2.77222 29.1805 -2.87221 28.7865 -2.89216 28.3844C-2.9121 27.9823 -2.8516 27.5803 -2.7142 27.2019C-2.5768 26.8235 -2.36526 26.4763 -2.09198 26.1807C-1.81869 25.8851 -1.48916 25.647 -1.12269 25.4803V25.4792Z" fill="#8E0D23"/>
</g>
<path d="M1.09089 30.7592L12.1884 19.9406C12.4764 19.6595 12.8172 19.438 13.1912 19.289C13.5651 19.14 13.9648 19.0664 14.3673 19.0724C14.7697 19.0784 15.1671 19.1639 15.5364 19.324C15.9057 19.4841 16.2397 19.7156 16.5192 20.0053C16.8007 20.2921 17.0224 20.632 17.1716 21.0051C17.3208 21.3782 17.3946 21.7773 17.3886 22.1791C17.3826 22.5809 17.2969 22.9775 17.1366 23.346C16.9763 23.7145 16.7445 24.0476 16.4546 24.3259L5.32419 35.1762C5.03624 35.4573 4.69559 35.6787 4.32181 35.8277C3.94803 35.9767 3.54848 36.0504 3.14614 36.0445C2.74379 36.0386 2.34658 35.9532 1.97733 35.7933C1.60808 35.6334 1.27407 35.4021 0.994494 35.1127C0.436825 34.5192 0.134468 33.7304 0.152496 32.9162C0.170523 32.102 0.507494 31.3274 1.09089 30.7592Z" fill="#05DDB3"/>
<mask id="mask2" mask-type="alpha" maskUnits="userSpaceOnUse" x="26" y="18" width="18" height="18">
<path d="M38.7484 34.8893L27.4898 24.1977C26.2707 23.0467 26.2061 21.0939 27.3934 19.8771C28.5479 18.6603 30.504 18.5968 31.7231 19.7807L38.0101 25.7661L42.9817 30.4723C44.2007 31.6244 44.2654 33.5761 43.0781 34.7929C41.9236 35.9768 39.9674 36.0403 38.7484 34.8893Z" fill="white"/>
</mask>
<g mask="url(#mask2)">
<path d="M38.7484 34.8893L27.4898 24.1977C26.2707 23.0467 26.2061 21.0939 27.3934 19.8771C28.5479 18.6603 30.504 18.5968 31.7231 19.7807L38.0101 25.7661L42.9817 30.4723C44.2007 31.6244 44.2654 33.5761 43.0781 34.7929C41.9236 35.9768 39.9674 36.0403 38.7484 34.8893Z" fill="#DD0558"/>
<path opacity="0.41" d="M44.9389 18.277L30.9519 25.0619C30.2198 25.4123 29.3793 25.4611 28.6115 25.1979C27.8437 24.9347 27.21 24.3804 26.8468 23.6545C26.1097 22.1497 26.7515 20.2933 28.2586 19.5573L42.2445 12.7713C42.9768 12.421 43.8174 12.3724 44.5852 12.6358C45.3531 12.8992 45.9867 13.4537 46.3497 14.1798C47.0868 15.6835 46.4778 17.541 44.9389 18.277Z" fill="#930559"/>
</g>
<path d="M42.9182 13.3157L31.7866 24.166C31.4986 24.4471 31.1578 24.6686 30.7839 24.8176C30.4099 24.9666 30.0102 25.0402 29.6078 25.0342C29.2053 25.0282 28.808 24.9427 28.4386 24.7826C28.0693 24.6225 27.7353 24.391 27.4558 24.1013C27.1744 23.8145 26.9526 23.4746 26.8034 23.1015C26.6542 22.7284 26.5804 22.3293 26.5865 21.9275C26.5925 21.5257 26.6781 21.1291 26.8384 20.7606C26.9987 20.3921 27.2305 20.059 27.5204 19.7807L38.6508 8.9304C38.9388 8.64932 39.2794 8.42791 39.6532 8.2789C40.027 8.12989 40.4265 8.05623 40.8289 8.06213C41.2312 8.06803 41.6284 8.15338 41.9977 8.31329C42.3669 8.47319 42.701 8.7045 42.9805 8.9939C43.262 9.2807 43.4838 9.62047 43.6332 9.99356C43.7825 10.3666 43.8563 10.7656 43.8504 11.1675C43.8445 11.5693 43.759 11.9659 43.5988 12.3345C43.4385 12.703 43.2068 13.0361 42.917 13.3145L42.9182 13.3157Z" fill="#FF0659"/>
<mask id="mask3" mask-type="alpha" maskUnits="userSpaceOnUse" x="8" y="26" width="18" height="19">
<path d="M9.81493 38.9536L20.5292 27.7189C21.6836 26.5032 23.6398 26.4386 24.8588 27.6225C26.0779 28.7758 26.1426 30.7274 24.9552 31.9431L18.9563 38.2177L14.2421 43.179C13.0866 44.3947 11.1304 44.4593 9.91132 43.2742C8.69225 42.1221 8.6605 40.1704 9.81493 38.9536Z" fill="white"/>
</mask>
<g mask="url(#mask3)">
<path d="M9.81493 38.9536L20.5292 27.7189C21.6836 26.5032 23.6398 26.4386 24.8588 27.6225C26.0779 28.7758 26.1426 30.7274 24.9552 31.9431L18.9563 38.2177L14.2421 43.179C13.0866 44.3947 11.1304 44.4593 9.91132 43.2742C8.69225 42.1221 8.6605 40.1704 9.81493 38.9536Z" fill="#05B4D1"/>
<path opacity="0.37" d="M27.5851 44.8108L19.631 31.4963C18.7646 30.0561 19.2455 28.1668 20.6891 27.3027C21.3874 26.8898 22.2205 26.7692 23.0072 26.9671C23.7939 27.165 24.4708 27.6654 24.8906 28.3596L32.8458 41.6741C33.7122 43.1143 33.2313 45.0036 31.7877 45.8677C30.3441 46.7636 28.4514 46.2839 27.5851 44.8108Z" fill="#1C8DA0"/>
</g>
<path d="M31.4351 43.1154L20.5598 32.0077C20.2784 31.7208 20.0566 31.381 19.9074 31.0079C19.7582 30.6348 19.6845 30.2357 19.6905 29.8339C19.6965 29.4321 19.7821 29.0355 19.9424 28.667C20.1027 28.2985 20.3346 27.9654 20.6244 27.6871C20.9124 27.4058 21.2531 27.1843 21.627 27.0352C22.0009 26.8861 22.4006 26.8124 22.803 26.8183C23.2055 26.8242 23.6029 26.9096 23.9722 27.0696C24.3416 27.2296 24.6757 27.461 24.9553 27.7506L35.8294 38.8572C36.1108 39.1441 36.3325 39.4839 36.4818 39.857C36.631 40.2302 36.7047 40.6292 36.6987 41.031C36.6927 41.4328 36.6071 41.8294 36.4467 42.1979C36.2864 42.5664 36.0546 42.8995 35.7647 43.1778C35.4768 43.4589 35.1362 43.6803 34.7624 43.8293C34.3886 43.9783 33.989 44.052 33.5867 44.0461C33.1844 44.0402 32.7871 43.9548 32.4179 43.7949C32.0486 43.635 31.7146 43.4037 31.4351 43.1143V43.1154Z" fill="#06C1ED"/>
<path d="M58.9078 16.4694H68.8487V19.0515H61.778V21.7562H68.0027V24.3383H61.778V27.1326H68.9394V29.7147H58.9078V16.4694ZM76.4319 16.4694H79.1195L85.284 24.6423V16.4694H88.1531V29.7147H85.6764L79.3021 21.3003V29.7147H76.4319V16.4694ZM95.6161 23.1533V23.1227C95.6161 19.3555 98.4557 16.2573 102.504 16.2573C104.982 16.2573 106.492 17.0772 107.701 18.2929L105.859 20.4192C104.831 19.4779 103.804 18.9302 102.475 18.9302C100.238 18.9302 98.6371 20.7832 98.6371 23.0626V23.0921C98.6371 25.3714 100.209 27.2539 102.475 27.2539C103.985 27.2539 104.891 26.6472 105.949 25.7048L107.792 27.5884C106.431 29.0468 104.922 29.9586 102.383 29.9586C98.5158 29.9586 95.6161 26.95 95.6161 23.1533ZM115.012 16.4694H117.913V27.0725H124.5V29.7147H115.012V16.4694ZM130.24 23.1533V23.1227C130.24 19.3555 133.2 16.2573 137.279 16.2573C141.358 16.2573 144.258 19.2954 144.258 23.0614V23.0921C144.258 26.8593 141.298 29.9586 137.219 29.9586C133.14 29.9586 130.24 26.9194 130.24 23.1533ZM141.206 23.1533V23.1227C141.206 20.8444 139.545 18.9608 137.219 18.9608C134.892 18.9608 133.261 20.8138 133.261 23.0921V23.1227C133.261 25.4021 134.922 27.2845 137.248 27.2845C139.605 27.2845 141.206 25.4315 141.206 23.1533ZM151.509 24.0639V16.5H154.409V24.0038C154.409 26.1607 155.497 27.2845 157.249 27.2845C159.001 27.2845 160.09 26.1913 160.09 24.0945V16.5H162.989V23.9732C162.989 27.9831 160.754 29.9586 157.22 29.9586C153.684 29.9586 151.509 27.9525 151.509 24.0651V24.0639ZM170.874 16.4694H176.011C180.151 16.4694 183.02 19.326 183.02 23.0626V23.0921C183.02 26.8287 180.151 29.7147 176.011 29.7147H170.874V16.4694ZM176.011 27.102C178.397 27.102 179.999 25.4916 179.999 23.1533V23.1227C179.999 20.7832 178.397 19.1128 176.011 19.1128H173.775V27.102H176.011ZM190.513 16.4694H200.453V19.0515H193.383V21.7562H199.607V24.3383H193.383V27.1326H200.544V29.7147H190.513V16.4694ZM208.005 16.4694H210.694L216.858 24.6423V16.4694H219.728V29.7147H217.281L210.906 21.3003V29.7147H208.036V16.4694H208.005Z" fill="#4A4A4A"/>
</g>
<defs>
<clipPath id="clip0">
<rect width="220" height="44.2268" fill="white"/>
</clipPath>
</defs>
</svg>
