<svg width="25" height="25" viewBox="0 0 25 25" fill="none" xmlns="http://www.w3.org/2000/svg">
<path d="M22.5806 1.20969H2.41935C1.08871 1.20969 0 2.2984 0 3.62904C0 4.95969 1.08871 6.0484 2.41935 6.0484H22.5806C23.9113 6.0484 25 4.95969 25 3.62904C25 2.2984 23.9113 1.20969 22.5806 1.20969Z" fill="#ABABAB"/>
<path d="M22.5806 10.0807H2.41935C1.08871 10.0807 0 11.1694 0 12.5C0 13.8307 1.08871 14.9194 2.41935 14.9194H22.5806C23.9113 14.9194 25 13.8307 25 12.5C25 11.1694 23.9113 10.0807 22.5806 10.0807Z" fill="#ABABAB"/>
<path d="M22.5806 18.9516H2.41935C1.08871 18.9516 0 20.0403 0 21.371C0 22.7016 1.08871 23.7903 2.41935 23.7903H22.5806C23.9113 23.7903 25 22.7016 25 21.371C25 20.0403 23.9113 18.9516 22.5806 18.9516Z" fill="#ABABAB"/>
</svg>
