<svg width="162" height="400" viewBox="0 0 162 400" fill="none" xmlns="http://www.w3.org/2000/svg">
<g clip-path="url(#clip0)">
<path d="M381.579 -144.725L36.8237 82.8941C-0.476956 107.403 -11.1678 158.191 14.3637 195.505C39.0532 232.672 90.1011 243.4 127.549 218.054L320.135 90.5376L472.305 -9.56452C509.605 -34.0736 520.296 -84.862 494.764 -122.176C470.075 -159.343 418.879 -169.234 381.579 -144.725Z" fill="#FF8E9B"/>
<path d="M390.456 438.263L148.447 102.865C121.926 66.2388 71.277 58.1715 34.5228 84.5036C-2.23136 110.836 -10.2495 161.232 16.271 197.858L258.28 533.256C284.801 569.882 335.45 577.949 372.204 551.617C408.958 525.285 416.977 474.889 390.456 438.263Z" fill="#FA6475"/>
</g>
<defs>
<clipPath id="clip0">
<rect width="161.81" height="400" fill="white"/>
</clipPath>
</defs>
</svg>
