<svg width="162" height="401" viewBox="0 0 162 401" fill="none" xmlns="http://www.w3.org/2000/svg">
<g clip-path="url(#clip0)">
<path d="M-220.074 545.436L124.638 317.75C161.934 293.234 172.615 242.444 147.076 205.135C122.379 167.973 71.3294 157.255 33.8861 182.608L-158.675 310.161L-310.825 410.293C-348.121 434.809 -358.802 485.6 -333.263 522.909C-308.566 560.071 -257.369 569.952 -220.074 545.436Z" fill="#FF8E9B"/>
<path d="M-229.063 -37.5503L13.0106 297.802C39.5387 334.422 90.1892 342.48 126.938 316.141C163.687 289.801 171.696 239.403 145.168 202.783L-96.9055 -132.569C-123.434 -169.189 -174.084 -177.247 -210.833 -150.908C-247.582 -124.569 -255.591 -74.1709 -229.063 -37.5503Z" fill="#FA6475"/>
</g>
<defs>
<clipPath id="clip0">
<rect x="161.477" y="400.637" width="161.81" height="400" transform="rotate(179.989 161.477 400.637)" fill="white"/>
</clipPath>
</defs>
</svg>
