<svg width="763" height="323" viewBox="0 0 763 323" fill="none" xmlns="http://www.w3.org/2000/svg">
<g filter="url(#filter0_d)">
<path d="M38.5905 418.273C56.8012 284.918 221.773 405.209 390.017 230.42C558.262 55.6316 612.091 229.906 670.185 233.45C719.91 236.482 752.468 273.793 773.643 317.571C1004.32 794.473 14.2551 596.478 38.5905 418.273Z" fill="#C2D7F4"/>
</g>
<g clip-path="url(#clip0)">
<path d="M330.271 260.886C331.536 260.547 332.287 259.246 331.948 257.981C331.609 256.715 330.308 255.965 329.043 256.304C327.777 256.643 327.027 257.943 327.366 259.209C327.705 260.474 329.005 261.225 330.271 260.886Z" fill="#596CAF"/>
<path d="M327.553 263.42C327.482 262.816 327.84 262.346 328.194 262.349L330.763 262.375C331.116 262.381 331.434 263.114 331.43 263.47L331.627 272.084C331.62 272.442 331.466 272.66 331.111 272.653L329.402 272.736C327.814 272.014 327.572 271.08 327.494 269.722L327.553 263.42Z" fill="#596CAF"/>
<path d="M327.992 273.262L328.35 276.236C328.35 276.236 327.967 279.021 327.636 280.685C327.387 281.945 327.344 282.817 327.775 282.917C328.435 283.07 329.027 282.173 329.5 280.687C330.294 278.194 330.712 276.943 330.836 276.355L330.886 274.894C330.887 274.895 328.502 274.097 327.992 273.262Z" fill="#596CAF"/>
<path d="M335.549 272.508L331.509 270.194C330.87 269.822 330.182 270.262 329.809 270.902C329.435 271.539 328.566 272.279 329.204 272.655L334.178 274.984L334.902 279.482C335.158 280.57 335.389 281.179 336.094 281.067C336.753 280.962 336.678 279.554 336.654 279.199C336.654 279.199 336.351 274.787 336.292 274.169C336.233 273.55 336.106 272.838 335.549 272.508Z" fill="#596CAF"/>
<path d="M336.889 262.081L334.787 263.856L331.165 262.456C330.59 262.236 329.944 262.525 329.724 263.103C329.504 263.678 329.793 264.323 330.371 264.544L334.273 266.035C334.639 266.173 335.142 266.163 335.448 265.92C335.448 265.92 337.327 263.956 337.823 263.403C338.343 262.82 338.858 262.101 338.492 261.71C337.971 261.148 337.423 261.621 336.889 262.081Z" fill="#596CAF"/>
<path d="M336.488 260.906L341.405 279.259" stroke="#596CAF" stroke-width="1.1418" stroke-miterlimit="10" stroke-linecap="round" stroke-linejoin="round"/>
<path d="M326.402 263.628C326.402 263.628 326.16 268.461 326.132 269.226C326.104 269.991 325.478 270.685 324.319 270.646C323.16 270.605 321.928 270.454 321.766 269.156C321.591 267.741 322.394 265.584 323.2 264.12C324.006 262.657 326.449 261.568 326.402 263.628Z" fill="#596CAF"/>
</g>
<g clip-path="url(#clip1)">
<path d="M527.877 141.564C527.749 141.493 527.593 141.498 527.469 141.574C526.987 141.858 526.441 142.013 525.882 142.024C525.065 142.063 524.267 141.773 523.667 141.218C522.974 140.574 522.05 140.236 521.105 140.28C520.344 140.294 519.605 140.544 518.993 140.998L518.988 140.802C518.978 140.416 518.656 140.11 518.27 140.121C517.883 140.131 517.578 140.452 517.588 140.838L517.915 153.434C517.925 153.821 518.246 154.126 518.633 154.116C519.019 154.106 519.325 153.784 519.315 153.398L519.157 147.333C519.234 147.324 519.307 147.293 519.367 147.244C519.912 146.821 520.579 146.587 521.269 146.578C522.087 146.538 522.887 146.829 523.488 147.384C524.18 148.027 525.102 148.365 526.045 148.322C526.769 148.311 527.473 148.086 528.068 147.674C528.196 147.581 528.267 147.43 528.259 147.272L528.121 141.966C528.118 141.798 528.025 141.644 527.877 141.564Z" fill="#596CAF"/>
</g>
<defs>
<filter id="filter0_d" x="1.14441e-05" y="0" width="895.485" height="874.608" filterUnits="userSpaceOnUse" color-interpolation-filters="sRGB">
<feFlood flood-opacity="0" result="BackgroundImageFix"/>
<feColorMatrix in="SourceAlpha" type="matrix" values="0 0 0 0 0 0 0 0 0 0 0 0 0 0 0 0 0 0 127 0"/>
<feOffset dy="4"/>
<feGaussianBlur stdDeviation="5"/>
<feColorMatrix type="matrix" values="0 0 0 0 0.695833 0 0 0 0 0.695833 0 0 0 0 0.695833 0 0 0 0.25 0"/>
<feBlend mode="normal" in2="BackgroundImageFix" result="effect1_dropShadow"/>
<feBlend mode="normal" in="SourceGraphic" in2="effect1_dropShadow" result="shape"/>
</filter>
<clipPath id="clip0">
<rect x="314" y="262.686" width="25.944" height="25.944" transform="rotate(-24.3224 314 262.686)" fill="white"/>
</clipPath>
<clipPath id="clip1">
<rect x="515.821" y="140.184" width="14" height="14" transform="rotate(-1.48575 515.821 140.184)" fill="white"/>
</clipPath>
</defs>
</svg>
